<?xml version="1.0" encoding="UTF-8" standalone="no"?>
<!-- Created with Inkscape (http://www.inkscape.org/) -->

<svg
   xmlns:dc="http://purl.org/dc/elements/1.1/"
   xmlns:cc="http://creativecommons.org/ns#"
   xmlns:rdf="http://www.w3.org/1999/02/22-rdf-syntax-ns#"
   xmlns:svg="http://www.w3.org/2000/svg"
   xmlns="http://www.w3.org/2000/svg"
   xmlns:sodipodi="http://sodipodi.sourceforge.net/DTD/sodipodi-0.dtd"
   xmlns:inkscape="http://www.inkscape.org/namespaces/inkscape"
   version="1.1"
   id="svg4591"
   width="9.6000004"
   height="9.6000004"
   viewBox="0 0 9.6000004 9.6000004"
   sodipodi:docname="numbiosis.svg"
   inkscape:version="0.92.3 (2405546, 2018-03-11)">
  <metadata
     id="metadata4597">
    <rdf:RDF>
      <cc:Work
         rdf:about="">
        <dc:format>image/svg+xml</dc:format>
        <dc:type
           rdf:resource="http://purl.org/dc/dcmitype/StillImage" />
        <dc:title></dc:title>
      </cc:Work>
    </rdf:RDF>
  </metadata>
  <defs
     id="defs4595" />
  <sodipodi:namedview
     pagecolor="#ffffff"
     bordercolor="#666666"
     borderopacity="1"
     objecttolerance="10"
     gridtolerance="10"
     guidetolerance="10"
     inkscape:pageopacity="0"
     inkscape:pageshadow="2"
     inkscape:window-width="1920"
     inkscape:window-height="1030"
     id="namedview4593"
     showgrid="false"
     inkscape:zoom="39.791665"
     inkscape:cx="3.2345423"
     inkscape:cy="-0.2166851"
     inkscape:window-x="0"
     inkscape:window-y="26"
     inkscape:window-maximized="1"
     inkscape:current-layer="svg4591"
     inkscape:pagecheckerboard="true" />
  <path
     style="fill:#fdf6e3;stroke-width:0.12;fill-opacity:1"
     d="M 4.3702619,9.333046 C 3.9469257,9.1144072 3.6942024,8.5164058 3.468808,7.2000003 3.2559624,5.956885 2.9283398,5.0777786 2.6361141,4.9656411 2.2864571,4.8314652 1.8627757,5.0410801 1.1502187,5.7007816 0.75859975,6.0633519 0.37790175,6.3600003 0.30422275,6.3600003 c -0.209282,0 -0.15967,-0.941089 0.103952,-1.971839 0.559125,-2.1861594 2.01123265,-4.09251359 2.93982085,-3.85945279 0.3628267,0.0910637 0.487808,0.43245441 0.899194,2.45617849 0.3258016,1.6027098 0.5783933,2.2951132 0.8372672,2.2951132 0.2287877,0 0.5049304,-0.4230928 1.3444839,-2.0599543 C 7.7642418,0.61663452 8.8982198,-0.43509321 9.3832716,0.48000002 9.8421279,1.3456731 8.9858919,5.1820188 7.9003246,7.1243101 6.9843597,8.7631493 5.303342,9.8149505 4.3702619,9.333046 Z M 5.6994927,8.1692311 C 6.132532,7.7361918 6.1592818,7.2769655 5.7664597,7.0195785 5.243114,6.6766692 4.4902622,7.2200779 4.4902622,7.9407383 c 0,0.6316787 0.6779428,0.7597808 1.2092305,0.2284928 z M 7.1255874,6.2173729 C 7.4565242,5.8621538 7.464147,5.1600002 7.1370664,5.1600002 c -0.2939543,0 -0.6068045,0.4365335 -0.6068045,0.8467009 0,0.5377745 0.2185349,0.6151089 0.5953255,0.2106718 z M 8.0976914,4.0004595 C 8.2490998,3.6022252 8.0724604,3.3657966 7.7953479,3.5957793 7.515757,3.8278192 7.5686872,4.3200002 7.8732319,4.3200002 c 0.056633,0 0.1576402,-0.1437934 0.2244595,-0.3195407 z M 8.6690609,2.1200562 c 0.022965,-0.1184117 -0.038251,-0.2000561 -0.15,-0.2000561 -0.1113162,0 -0.1887989,0.1025995 -0.1887989,0.25 0,0.2924454 0.2804128,0.2511084 0.3387989,-0.049944 z"
     id="path4601"
     inkscape:connector-curvature="0" />
</svg>
